<svg xmlns="http://www.w3.org/2000/svg" xmlns:xlink="http://www.w3.org/1999/xlink" version="1.2" baseProfile="tiny"
     id="Layer_1" x="0px" y="0px" width="720px" height="299.9px" viewBox="0 0 720 299.9" overflow="scroll"
     xml:space="preserve" style="width:144px; height:60px;">
                    <g>
                        <path fill="#E2001A"
                              d="M459.2,74.9L388.4,4.2c-5.4-5.4-14.1-5.4-19.5,0L358.1,15L418,74.9c5.4,5.4,5.4,14.1,0,19.5l-59.9,59.9   l10.8,10.8c5.4,5.4,14.1,5.4,19.5,0l70.7-70.7C464.5,89.1,464.5,80.3,459.2,74.9z"></path>
                        <g>
                            <path fill="#003064"
                                  d="M29.6,257.1h2.6c4.2,0,8.7-0.1,11.4,4.3c1.4,2.4,1.8,5.1,1.8,7.8c0,3.5-0.7,5.9-1.3,7.2    c-2.1,5.4-6.4,5.9-11.2,6h-3.3V257.1z M39.4,297.9c12.4,0,19.4-0.5,24.8-3.3c1.2-0.7,4-2.2,6.6-5.5c5.3-6.8,5.3-14.6,5.3-17.6    c0-3.9-0.5-6.4-0.8-8.1c-2.4-9.3-8.7-12.8-11.8-13.9c-2.5-0.9-4.9-1-5.9-1.2c4-1.4,5.9-2.5,7.6-3.8c6.7-5.5,7.1-13.7,7.1-16.7    c0-3,0-10.9-6.1-16.6c-4.4-4.3-9.3-5.2-15.1-5.6c-5.1-0.3-10.1-0.1-15.2,0H0v92.3H39.4z M29.6,242.8v-21.8h2.5    c6.1,0,8.7,0.8,10.6,4.1c1.4,2.6,1.4,5.6,1.4,6.7c0,0.9,0,4.6-1.8,7.5c-1.6,2.7-4,3.7-9.5,3.7H29.6z"></path>
                            <path fill="#003064"
                                  d="M85.5,297.9v-65.4h27.1v14.2c0.7-2.4,1.2-4.2,2.4-6.4c1.5-3.1,5.6-9,14.2-9c0.9,0,1.9,0.1,2.8,0.3    l-0.1,23.4c-0.8-0.4-4.5-2.2-8-2.2c-1.2,0-3.6,0.1-6.2,1.7c-4.6,2.9-5.1,7.5-5.1,12.8v30.6H85.5z"></path>
                            <path fill="#003064"
                                  d="M178.7,264.3c0,3.5-0.2,12.9-1.1,16.3c-0.2,0.8-1.5,6.8-6.2,6.9c-1.9,0-3.1-1-3.5-1.6    c-2.8-3-2.7-8.9-2.8-9.5c-0.1-3.7-0.2-7.3-0.2-11c0-3,0.1-6,0.2-9c0.2-3.9,0.5-8.8,3.1-11.6c1.1-1.3,2.5-2,4-2    c1.5,0,3.9,0.7,5.3,4.2c1.4,3.5,1.2,8.4,1.2,9.3C178.7,259.1,178.7,261.7,178.7,264.3z M205.9,265.5c0-2,0.5-9.3-1.3-15.7    c-1.4-5.1-3.6-8.4-4.9-9.9c-7.2-8.6-19.2-9-21.8-9.2c-1.2-0.1-2.4-0.1-3.5-0.1c-18.2,0-26.9,4.8-32,13.5    c-4.4,7.5-4.5,15.2-4.5,23.7c0,2.9-0.5,12.2,4.4,20.1c3.5,6,9.9,10.9,23.3,11.8c2.2,0.1,4.5,0.3,6.8,0.3c6.1,0,9.6-0.5,12.4-1.2    c10.4-2.6,17.5-9.4,20-21C205.5,273.9,205.8,269.4,205.9,265.5z"></path>
                            <path fill="#003064"
                                  d="M253.2,297.9v-41.3c0-3.9,0.1-6.7-0.6-8.2c-0.4-1-1.6-2.7-4.1-2.7c-0.6,0-1.8,0-2.9,0.9    c-2.1,1.6-2.1,4.6-2.1,7.1v44.3h-27.1v-65.4h27.1v7.3c3.2-2.9,9.3-8.5,20-8.5c4.4,0,10,1.2,13.2,5.2c3.2,4.1,3.5,9.2,3.6,14.1    v47.2H253.2z"></path>
                            <path fill="#003064"
                                  d="M333.1,297.9l-6.9-23.3l-6.8,9.5v13.7h-26.5v-92.3h26.5v49.2l13.2-22.2h26.6l-14.8,19.9l16.9,45.5H333.1z"></path>
                            <path fill="#003064"
                                  d="M406.2,297.9v-42.9c0-3.5-0.2-5.6-0.9-7.1c-0.5-0.9-1.4-2.4-3.6-2.4c-0.4,0-1.6,0-2.7,0.8    c-2.2,1.7-2.4,4.4-2.5,7.1v44.4h-27.1v-92.3h27.1v34.3c3.3-3.1,8.9-8.5,19.5-8.5c2,0,10.1-0.3,14.5,6.7c2.7,4.3,2.7,10.3,2.8,15.2    v44.7H406.2z"></path>
                            <path fill="#003064"
                                  d="M484.6,264.3c0,3.5-0.2,12.9-1.1,16.3c-0.2,0.8-1.5,6.8-6.2,6.9c-1.9,0-3.1-1-3.5-1.6    c-2.8-3-2.7-8.9-2.8-9.5c-0.1-3.7-0.2-7.3-0.2-11c0-3,0.1-6,0.2-9c0.2-3.9,0.5-8.8,3.1-11.6c1.1-1.3,2.5-2,4-2    c1.5,0,3.9,0.7,5.3,4.2c1.4,3.5,1.2,8.4,1.2,9.3C484.6,259.1,484.6,261.7,484.6,264.3z M511.8,265.5c0-2,0.5-9.3-1.3-15.7    c-1.4-5.1-3.6-8.4-4.9-9.9c-7.2-8.6-19.2-9-21.8-9.2c-1.2-0.1-2.4-0.1-3.5-0.1c-18.2,0-26.9,4.8-32,13.5    c-4.4,7.5-4.5,15.2-4.5,23.7c0,2.9-0.5,12.2,4.4,20.1c3.5,6,9.9,10.9,23.3,11.8c2.2,0.1,4.5,0.3,6.8,0.3c6.1,0,9.6-0.5,12.4-1.2    c10.4-2.6,17.5-9.4,20-21C511.5,273.9,511.7,269.4,511.8,265.5z"></path>
                            <path fill="#003064"
                                  d="M522.3,297.9v-65.4h27.1v14.2c0.7-2.4,1.2-4.2,2.4-6.4c1.5-3.1,5.6-9,14.2-9c0.9,0,1.9,0.1,2.8,0.3    l-0.1,23.4c-0.8-0.4-4.5-2.2-8-2.2c-1.2,0-3.6,0.1-6.2,1.7c-4.6,2.9-5.1,7.5-5.1,12.8v30.6H522.3z"></path>
                            <path fill="#003064"
                                  d="M609.4,249.3c0-4.2-1.3-7.1-5.5-7.1c-2.6,0-5.1,1.8-5.1,5c0.1,3.8,2.7,5,8,6.1l5.4,1.2    c9.5,2.1,13.6,3.9,16.9,8.2c1.4,1.8,2.4,3.7,2.9,5.8c0.7,2.2,0.9,4.8,0.9,7.2c0,5.5-1.1,10.7-4.2,14.8c-4.5,6-11.8,9.3-25.9,9.3    c-3.8,0-7.6-0.1-11.4-0.7c-3.4-0.5-17.9-1.8-17.9-18c0-0.8,0.1-1.4,0.1-2.2l24.4,0.5c0,2.7,0.2,5.6,2.5,7.2c0.7,0.5,2,1.2,4,1.2    c4.7,0,5.6-3.5,5.6-5.8c0-0.4-0.1-1.7-0.6-2.6c-1.4-2.4-5.3-3.1-7.3-3.5l-5.9-1.3c-7.3-1.7-10.9-3-14-5.2c-2.7-2-7.4-6.7-7.5-15.9    c0.1-5.1,1.3-10.2,4.2-14c4.1-5.4,10.9-8.8,24.1-8.8c2.1,0,7.3,0,13.3,1c1.5,0.3,9.4,1.3,13.4,7.8c1.9,3,2.1,6.5,2.1,10.3    L609.4,249.3z"></path>
                            <path fill="#003064"
                                  d="M670.6,269.4c0.1,5.5-0.2,8.6,1.6,10.7c1.1,1.2,2.5,1.8,5.4,1.8h1.5v14.8c-1.8,0.4-8,2-14.1,2    c-4.7,0-11.2-1-15.3-4.2c-2.4-1.8-3.5-4.2-4-5.4c-2.4-5.2-2.2-10.9-2.1-16.1v-29h-6.2v-11.5h6.5v-11.5l26.7-6.3v17.8h8.6v11.5    h-8.6V269.4z"></path>
                        </g>
                        <g>
                            <path fill="#003064"
                                  d="M389.6,74.8L318.9,4c-5.4-5.4-14.1-5.4-19.5,0l-70.7,70.7c-5.4,5.4-5.4,14.1,0,19.5l70.7,70.7    c5.4,5.4,14.1,5.4,19.5,0l70.7-70.7C395,88.9,395,80.2,389.6,74.8z M350.8,89.6l-36.7,36.7c-2.8,2.8-7.3,2.8-10.1,0l-36.7-36.7    c-2.8-2.8-2.8-7.3,0-10.1l36.7-36.7c2.8-2.8,7.3-2.8,10.1,0l36.7,36.7C353.6,82.3,353.6,86.8,350.8,89.6z"></path>
                        </g>
                        <path fill="#003064"
                              d="M699.6,229.5V225h3.2c1.5,0,2.3,0.3,2.7,1c0.2,0.4,0.3,0.9,0.3,1.1c0,0.6-0.2,1.1-0.3,1.2   c-0.6,1.1-1.5,1.1-3.6,1.1H699.6z M711.3,242.4c-1.3-2.6-1.7-6.2-1.9-6.8c0-0.4-0.2-2.3-1.6-3.3c-0.2-0.2-0.5-0.3-0.7-0.5   c1-0.5,3.7-1.5,3.7-5c0-1.3-0.4-2.4-1.2-3.4c-1-1.3-2.4-2.1-5.7-2.2c-0.6,0-1.3,0-1.9,0h-7.6v21.3h5.1v-8.9h0.9c0.9,0,2,0,2.7,0.6   c0.6,0.5,0.7,1.3,1,2.7c0.3,2,0.4,3.7,1.3,5.5L711.3,242.4z M720,232.1c0-3.9-1.1-7.6-3.4-10.7c-3.4-4.6-8.6-7.1-14.2-7.1   c-7.5,0-11.9,4.2-13.7,6.3c-1.4,1.7-4,5.5-4,11.3c0,7.9,4.6,12.3,6.9,14.1c3.1,2.3,6.9,3.6,10.8,3.6c2.5,0,8.8-0.6,13.5-6.2   C719.5,239,720,234.2,720,232.1z M717.3,232c0,6.3-3.9,12-9.9,14.1c-2.3,0.8-4.1,0.9-5.1,0.9c-6.1,0-11.7-3.7-14-9.3   c-0.7-1.8-1.1-3.7-1.1-5.7c0-6.8,4.2-10.7,6.2-12.2c3.6-2.6,7.3-2.9,8.9-2.9c6.8,0,10.6,4,12.1,6   C717.1,226.6,717.3,230.4,717.3,232z"></path>
                    </g>
                </svg>