<svg width="230" height="98" viewBox="0 0 230 98" fill="none" xmlns="http://www.w3.org/2000/svg">
    <path d="M146.689 24.976L124.072 2.34447C122.347 0.615891 119.568 0.615891 117.843 2.34447L114.393 5.80162L133.528 24.976C135.253 26.7046 135.253 29.4895 133.528 31.2181L114.393 50.3925L117.843 53.8496C119.568 55.5782 122.347 55.5782 124.072 53.8496L146.657 31.2181C148.382 29.5215 148.382 26.7046 146.689 24.976Z" fill="white"/>
    <path d="M9.45556 83.2995H10.2861C11.6278 83.2995 13.0653 83.2674 13.9278 84.6759C14.375 85.4442 14.5028 86.3085 14.5028 87.1728C14.5028 88.2931 14.2792 89.0614 14.0875 89.4775C13.4167 91.2061 12.0431 91.3661 10.5097 91.3982H9.45556V83.2995ZM12.5861 96.3598C16.5472 96.3598 18.7833 96.1998 20.5083 95.3035C20.8917 95.0794 21.7861 94.5992 22.6167 93.5429C24.3097 91.3661 24.3097 88.8693 24.3097 87.909C24.3097 86.6606 24.15 85.8603 24.0542 85.3161C23.2875 82.3391 21.275 81.2188 20.2847 80.8666C19.4861 80.5786 18.7194 80.5465 18.4 80.4825C19.6778 80.0344 20.2847 79.6823 20.8278 79.2661C22.9681 77.5055 23.0958 74.8807 23.0958 73.9203C23.0958 72.96 23.0958 70.4312 21.1472 68.6066C19.7417 67.2301 18.1764 66.942 16.3236 66.814C14.6944 66.7179 13.0972 66.782 11.4681 66.814H0V96.3598H12.5861ZM9.45556 78.7219V71.7436H10.2542C12.2028 71.7436 13.0333 71.9997 13.6403 73.056C14.0875 73.8883 14.0875 74.8486 14.0875 75.2008C14.0875 75.4889 14.0875 76.6733 13.5125 77.6016C13.0014 78.4658 12.2347 78.786 10.4778 78.786H9.45556V78.7219Z" fill="white"/>
    <path d="M27.3125 96.3598V75.4248H35.9694V79.9704C36.1931 79.2021 36.3528 78.6259 36.7361 77.9217C37.2153 76.9293 38.525 75.0407 41.2722 75.0407C41.5597 75.0407 41.8792 75.0727 42.1667 75.1367L42.1347 82.6272C41.8792 82.4992 40.6972 81.923 39.5792 81.923C39.1958 81.923 38.4292 81.955 37.5986 82.4672C36.1292 83.3955 35.9694 84.868 35.9694 86.5645V96.3598H27.3125Z" fill="white"/>
    <path d="M57.0847 85.6042C57.0847 86.7246 57.0208 89.7336 56.7333 90.822C56.6694 91.078 56.2541 92.9987 54.7527 93.0307C54.1458 93.0307 53.7625 92.7106 53.6347 92.5185C52.7402 91.5582 52.7722 89.6696 52.7402 89.4775C52.7083 88.2931 52.6763 87.1407 52.6763 85.9563C52.6763 84.996 52.7083 84.0357 52.7402 83.0754C52.8041 81.827 52.9 80.2584 53.7305 79.3621C54.0819 78.946 54.5291 78.7219 55.0083 78.7219C55.4875 78.7219 56.2541 78.946 56.7013 80.0664C57.1486 81.1867 57.0847 82.7553 57.0847 83.0434C57.0847 83.9397 57.0847 84.7719 57.0847 85.6042ZM65.7736 85.9883C65.7736 85.3481 65.9333 83.0114 65.3583 80.9627C64.9111 79.3301 64.2083 78.2738 63.793 77.7936C61.493 75.0407 57.6597 74.9126 56.8291 74.8486C56.4458 74.8166 56.0625 74.8166 55.7111 74.8166C49.8972 74.8166 47.118 76.3531 45.4888 79.1381C44.0833 81.5389 44.0513 84.0037 44.0513 86.7246C44.0513 87.6529 43.8916 90.6299 45.4569 93.1587C46.575 95.0794 48.6194 96.6479 52.9 96.936C53.6027 96.968 54.3375 97.032 55.0722 97.032C57.0208 97.032 58.1388 96.872 59.0333 96.6479C62.3555 95.8156 64.6236 93.6389 65.4222 89.9257C65.6458 88.6772 65.7416 87.2368 65.7736 85.9883Z" fill="white"/>
    <path d="M80.8834 96.3598V83.1394C80.8834 81.891 80.9153 80.9947 80.6917 80.5145C80.5639 80.1944 80.1806 79.6503 79.382 79.6503C79.1903 79.6503 78.807 79.6503 78.4556 79.9383C77.7848 80.4505 77.7848 81.4108 77.7848 82.2111V96.3918H69.1278V75.4569H77.7848V77.7936C78.807 76.8653 80.7556 75.0727 84.1736 75.0727C85.5792 75.0727 87.3681 75.4569 88.3903 76.7373C89.4125 78.0497 89.5084 79.6823 89.5403 81.2508V96.3598H80.8834Z" fill="white"/>
    <path d="M106.407 96.3598L104.203 88.9013L102.031 91.9423V96.3278H93.5653V66.782H102.031V82.5312L106.247 75.4248H114.744L110.017 81.795L115.415 96.3598H106.407Z" fill="white"/>
    <path d="M129.758 96.3598V82.6272C129.758 81.5069 129.694 80.8346 129.471 80.3545C129.311 80.0664 129.024 79.5862 128.321 79.5862C128.193 79.5862 127.81 79.5862 127.458 79.8423C126.756 80.3865 126.692 81.2508 126.66 82.1151V96.3278H118.003V66.782H126.66V77.7616C127.714 76.7693 129.503 75.0407 132.889 75.0407C133.528 75.0407 136.115 74.9447 137.521 77.1854C138.383 78.5619 138.383 80.4825 138.415 82.051V96.3598H129.758Z" fill="white"/>
    <path d="M154.803 85.6042C154.803 86.7246 154.739 89.7336 154.451 90.822C154.388 91.078 153.972 92.9987 152.471 93.0307C151.864 93.0307 151.481 92.7106 151.353 92.5185C150.458 91.5582 150.49 89.6696 150.458 89.4775C150.426 88.2931 150.394 87.1407 150.394 85.9563C150.394 84.996 150.426 84.0357 150.458 83.0754C150.522 81.827 150.618 80.2584 151.449 79.3621C151.8 78.946 152.247 78.7219 152.726 78.7219C153.206 78.7219 153.972 78.946 154.419 80.0664C154.867 81.1867 154.803 82.7553 154.803 83.0434C154.803 83.9397 154.803 84.7719 154.803 85.6042ZM163.492 85.9883C163.492 85.3481 163.651 83.0114 163.076 80.9627C162.629 79.3301 161.926 78.2738 161.511 77.7936C159.211 75.0407 155.378 74.9126 154.547 74.8486C154.164 74.8166 153.781 74.8166 153.429 74.8166C147.615 74.8166 144.836 76.3531 143.207 79.1381C141.801 81.5389 141.769 84.0037 141.769 86.7246C141.769 87.6529 141.61 90.6299 143.175 93.1587C144.293 95.0794 146.338 96.6479 150.618 96.936C151.321 96.968 152.056 97.032 152.79 97.032C154.739 97.032 155.857 96.872 156.751 96.6479C160.074 95.8156 162.342 93.6389 163.14 89.9257C163.396 88.6772 163.46 87.2368 163.492 85.9883Z" fill="white"/>
    <path d="M166.846 96.3598V75.4248H175.503V79.9704C175.726 79.2021 175.886 78.6259 176.269 77.9217C176.749 76.9293 178.058 75.0407 180.806 75.0407C181.093 75.0407 181.412 75.0727 181.7 75.1367L181.668 82.6272C181.412 82.4992 180.231 81.923 179.113 81.923C178.729 81.923 177.962 81.955 177.132 82.4672C175.662 83.3955 175.503 84.868 175.503 86.5645V96.3598H166.846Z" fill="white"/>
    <path d="M194.669 80.8026C194.669 79.4582 194.254 78.5299 192.913 78.5299C192.082 78.5299 191.283 79.1061 191.283 80.1304C191.315 81.3468 192.146 81.7309 193.839 82.083L195.564 82.4672C198.599 83.1394 199.908 83.7156 200.963 85.0921C201.41 85.6682 201.729 86.2764 201.889 86.9487C202.113 87.6529 202.176 88.4852 202.176 89.2534C202.176 91.014 201.825 92.6786 200.835 93.991C199.397 95.9117 197.065 96.968 192.561 96.968C191.347 96.968 190.133 96.936 188.919 96.7439C187.833 96.5839 183.201 96.1677 183.201 90.982C183.201 90.7259 183.233 90.5339 183.233 90.2778L191.028 90.4378C191.028 91.3021 191.092 92.2304 191.826 92.7426C192.05 92.9027 192.465 93.1267 193.104 93.1267C194.606 93.1267 194.893 92.0064 194.893 91.2701C194.893 91.1421 194.861 90.7259 194.701 90.4378C194.254 89.6696 193.008 89.4455 192.369 89.3175L190.485 88.9013C188.153 88.3571 187.003 87.941 186.013 87.2368C185.15 86.5965 183.649 85.092 183.617 82.1471C183.649 80.5145 184.032 78.882 184.958 77.6656C186.268 75.937 188.44 74.8486 192.657 74.8486C193.328 74.8486 194.989 74.8486 196.906 75.1687C197.385 75.2648 199.908 75.5849 201.186 77.6656C201.793 78.6259 201.857 79.7463 201.857 80.9627L194.669 80.8026Z" fill="white"/>
    <path d="M214.219 87.2368C214.251 88.9974 214.156 89.9897 214.731 90.6619C215.082 91.046 215.529 91.2381 216.456 91.2381H216.935V95.9757C216.36 96.1037 214.379 96.6159 212.431 96.6159C210.929 96.6159 208.853 96.2958 207.543 95.2714C206.776 94.6953 206.425 93.927 206.265 93.5429C205.499 91.8783 205.562 90.0537 205.594 88.3891V79.1061H203.614V75.4248H205.69V71.7436L214.219 69.7269V75.4248H216.967V79.1061H214.219V87.2368Z" fill="white"/>
    <path d="M124.456 24.944L101.871 2.28044C100.146 0.551865 97.3667 0.551865 95.6417 2.28044L73.0569 24.912C71.3319 26.6406 71.3319 29.4255 73.0569 31.1541L95.6417 53.7856C97.3667 55.5142 100.146 55.5142 101.871 53.7856L124.456 31.1541C126.181 29.4575 126.181 26.6726 124.456 24.944ZM112.061 29.6816L100.337 41.4295C99.443 42.3258 98.0055 42.3258 97.1111 41.4295L85.3875 29.6816C84.493 28.7853 84.493 27.3448 85.3875 26.4485L97.1111 14.7006C98.0055 13.8043 99.443 13.8043 100.337 14.7006L112.061 26.4485C112.956 27.3448 112.956 28.7853 112.061 29.6816Z" fill="white"/>
    <path d="M223.483 74.4645V73.024H224.506C224.985 73.024 225.24 73.12 225.368 73.3441C225.432 73.4722 225.464 73.6322 225.464 73.6962C225.464 73.8883 225.4 74.0484 225.368 74.0804C225.176 74.4325 224.889 74.4325 224.218 74.4325H223.483V74.4645ZM227.221 78.5939C226.806 77.7616 226.678 76.6092 226.614 76.4172C226.614 76.2891 226.55 75.6809 226.103 75.3608C226.039 75.2968 225.943 75.2648 225.879 75.2007C226.199 75.0407 227.061 74.7206 227.061 73.6002C227.061 73.1841 226.933 72.832 226.678 72.5118C226.358 72.0957 225.911 71.8396 224.857 71.8076C224.665 71.8076 224.442 71.8076 224.25 71.8076H221.822V78.6259H223.451V75.7769H223.739C224.026 75.7769 224.378 75.7769 224.601 75.969C224.793 76.1291 224.825 76.3851 224.921 76.8333C225.017 77.4735 225.049 78.0177 225.336 78.5939H227.221ZM230 75.2968C230 74.0484 229.649 72.864 228.914 71.8716C227.828 70.3991 226.167 69.5989 224.378 69.5989C221.982 69.5989 220.576 70.9433 220.001 71.6156C219.554 72.1597 218.724 73.3761 218.724 75.2328C218.724 77.7616 220.193 79.1701 220.928 79.7463C221.918 80.4825 223.132 80.8986 224.378 80.8986C225.176 80.8986 227.189 80.7066 228.69 78.914C229.84 77.5055 230 75.969 230 75.2968ZM229.138 75.2648C229.138 77.2814 227.892 79.106 225.975 79.7783C225.24 80.0344 224.665 80.0664 224.346 80.0664C222.397 80.0664 220.608 78.882 219.874 77.0894C219.65 76.5132 219.522 75.905 219.522 75.2648C219.522 73.088 220.864 71.8396 221.503 71.3595C222.653 70.5272 223.835 70.4312 224.346 70.4312C226.518 70.4312 227.732 71.7116 228.211 72.3518C229.074 73.5362 229.138 74.7526 229.138 75.2648Z" fill="white"/>
</svg>
