<svg width="175" height="34" viewBox="0 0 175 34" fill="none" xmlns="http://www.w3.org/2000/svg">
    <path d="M27.2222 1.70142C27.2222 2.86808 27.2222 2.86808 32.6666 3.01392L38.1111 3.15975L38.6944 5.5903C39.0347 6.9028 40.2013 11.9584 41.368 16.7709L43.4097 25.5209L45.2083 17.0139C46.2291 12.3472 47.2986 7.24308 47.5902 5.68753L48.1736 2.91669H52.2569H56.3888L56.0972 4.22919C55.9513 5.00697 54.6874 11.0347 53.2777 17.7431L50.7013 29.8959L57.5069 30.0417C61.2499 30.0903 64.3611 30.0903 64.4097 30.0417C64.5069 29.9445 65.8194 23.9653 67.3263 16.7709C68.8819 9.5278 70.1944 3.50003 70.3402 3.25697C70.6319 2.77086 83.7569 2.86808 87.6944 3.4028C95.9097 4.61808 99.4583 9.28475 98.1944 17.2084C97.5138 21.5834 96.0555 25.2292 94.0138 27.9028L92.3124 30.1389H99.993H107.674L110.542 16.5278L113.41 2.91669H125.465H137.472L137.035 5.00697C136.014 9.77086 137.035 9.23614 128.625 9.23614H121.139L120.604 11.6667C119.729 15.8472 119.243 15.5556 126.826 15.5556H133.583L133.146 17.6459C132.125 22.3611 133.049 21.8264 125.319 21.9722L118.417 22.1181L118.028 24.0625C117.833 25.132 117.542 26.4931 117.396 27.0764L117.153 28.1945H124.639C131.882 28.1945 132.125 28.2431 131.882 29.1667C131.639 30.0903 131.882 30.1389 137.764 30.1389H143.889V27.2222V24.3056H148.507H153.125V25.6667C153.125 27.9028 154.583 28.8264 157.5 28.5834C160.222 28.2917 161.875 27.1736 161.875 25.5209C161.875 23.9167 160.562 23.0417 156.285 21.875C148.896 19.882 147.049 18.2778 147.049 13.9028C147.097 10.8889 148.847 7.53475 151.326 5.63892C156.479 1.70142 167.465 1.40975 171.354 5.05558L173.007 6.65975L173.542 4.2778C173.785 2.9653 174.028 1.55558 174.028 1.2153C174.028 0.58336 164.451 0.486138 100.625 0.486138H27.2222V1.70142Z" fill="white"/>
    <path d="M6.56247 4.47227C5.88192 7.29172 0.486084 33.2501 0.486084 33.6389C0.486084 33.882 2.2847 34.0278 4.4722 33.9306L8.45831 33.7848L11.5208 19.4445C13.1736 11.5695 14.5347 4.71533 14.5833 4.22922C14.5833 3.50005 14.0972 3.40283 10.6944 3.40283C7.0972 3.40283 6.80553 3.45144 6.56247 4.47227Z" fill="white"/>
    <path d="M159.104 9.47923C158.278 9.81951 157.354 10.5487 157.062 11.0834C155.944 13.1737 157.014 13.8542 164.597 16.0417C166.493 16.5765 168.632 17.4515 169.264 17.9862L170.479 18.9098L171.062 16.1876C171.354 14.6806 171.597 13.2709 171.597 13.0278C171.597 12.8334 169.944 12.639 167.951 12.639C164.743 12.639 164.305 12.5417 164.305 11.764C164.305 9.52785 161.68 8.36118 159.104 9.47923Z" fill="white"/>
    <path d="M77.7778 9.86813C77.7778 10.3056 74.375 26.4445 74.0833 27.3195C73.8403 28.0973 74.1806 28.1945 76.4167 28.1945C80.1111 28.1945 82.4444 27.4167 84.6806 25.3751C88.1319 22.264 89.6389 17.4515 88.2778 13.9515C87.1111 10.9376 85.5069 10.014 81.3264 9.81952C79.3819 9.67369 77.7778 9.7223 77.7778 9.86813Z" fill="white"/>
    <path d="M31.9375 12.882C31.7916 13.4167 30.9652 17.1111 30.1388 21.1459C29.3125 25.132 28.5347 28.8264 28.3888 29.2639C28.1458 30.0417 28.5347 30.1389 32.3263 30.1389H36.4583L36.118 28.7778C35.9236 28.0486 35 23.9653 34.0277 19.6875C32.9097 14.875 32.1319 12.2986 31.9375 12.882Z" fill="white"/>
</svg>
