<svg width="240" height="108" viewBox="0 0 240 108" fill="none" xmlns="http://www.w3.org/2000/svg">
    <path fill-rule="evenodd" clip-rule="evenodd" d="M57.3481 104.425L61.2428 94.2648H62.7112L66.8876 104.425H65.3634L64.1782 101.321H59.9446L58.8165 104.425H57.3481ZM60.2835 100.248H63.7264L62.654 97.3688C62.3166 96.5224 62.1465 95.8461 61.9777 95.2814C61.8648 95.9591 61.6389 96.5796 61.413 97.2001L60.2835 100.248Z" fill="white"/>
    <path fill-rule="evenodd" clip-rule="evenodd" d="M239.322 76.936L238.25 78.5173C237.798 77.8953 237.29 77.6137 236.5 77.6137C235.824 77.6137 235.146 78.1212 235.146 78.8547C235.146 80.7177 239.661 79.927 239.661 83.8232C239.661 86.0236 238.25 87.7179 235.937 87.7179C234.355 87.7179 233.227 86.8142 232.436 85.4588L233.848 84.0476C234.186 84.8955 234.977 85.7419 235.937 85.7419C236.783 85.7419 237.348 84.9513 237.348 84.0476C237.348 82.9196 236.331 82.5807 235.372 82.1861C233.961 81.6213 232.888 80.8307 232.888 79.0806C232.888 77.2176 234.299 75.7507 236.218 75.7507C237.235 75.7507 238.589 76.2025 239.322 76.936ZM229.219 87.379L228.316 80.3231H228.26L225.719 87.5477H224.93L222.447 80.3231H222.389L221.373 87.379H219.172L221.091 75.7507H222.671L225.438 83.2012L228.147 75.7507H229.727L231.477 87.379H229.219ZM217.874 77.8953H214.205V80.436H217.761V82.3548H214.205V85.4588H217.874V87.379H211.948V75.9766H217.874V77.8953ZM208.448 77.8953V87.379H206.19V77.8953H203.875V75.9766H210.763V77.8953H208.448ZM202.69 76.936L201.675 78.5173C201.279 77.8953 200.716 77.6137 199.981 77.6137C199.304 77.6137 198.569 78.1212 198.569 78.8547C198.569 80.7177 203.142 79.927 203.142 83.8232C203.142 86.0236 201.675 87.7179 199.417 87.7179C197.78 87.7179 196.651 86.8142 195.861 85.4588L197.328 84.0476C197.61 84.8955 198.345 85.7419 199.36 85.7419C200.264 85.7419 200.828 84.9513 200.828 84.0476C200.828 82.9196 199.699 82.5807 198.853 82.1861C197.328 81.6213 196.256 80.8307 196.256 79.0806C196.256 77.2176 197.723 75.7507 199.586 75.7507C200.603 75.7507 202.014 76.2025 202.69 76.936ZM189.483 82.1289L185.926 75.9766H188.522L190.498 79.927L192.7 75.9766H195.297L191.684 82.1289V87.379H189.483V82.1289ZM184.967 76.936L183.951 78.5173C183.555 77.8953 182.992 77.6137 182.257 77.6137C181.581 77.6137 180.847 78.1212 180.847 78.8547C180.847 80.7177 185.363 79.927 185.363 83.8232C185.363 86.0236 183.951 87.7179 181.637 87.7179C180.057 87.7179 178.927 86.8142 178.138 85.4588L179.605 84.0476C179.831 84.8955 180.677 85.7419 181.637 85.7419C182.54 85.7419 183.105 84.9513 183.105 84.0476C183.105 82.9196 181.976 82.5807 181.129 82.1861C179.661 81.6213 178.588 80.8307 178.588 79.0806C178.588 77.2176 179.944 75.7507 181.92 75.7507C182.935 75.7507 184.29 76.2025 184.967 76.936ZM167.356 81.3382H172.267V81.6213C172.267 84.8383 170.63 87.7179 167.074 87.7179C163.745 87.7179 161.656 84.8383 161.656 81.6771C161.656 78.5159 163.8 75.7507 167.243 75.7507C169.163 75.7507 170.856 76.6543 171.703 78.4043L169.727 79.4767C169.332 78.4601 168.373 77.6694 167.187 77.6694C165.043 77.6694 163.97 79.8155 163.97 81.6771C163.97 83.653 165.043 85.7419 167.187 85.7419C168.541 85.7419 169.727 84.4995 169.784 83.1455H167.356V81.3382ZM150.31 87.379V75.7507H151.89L157.931 83.653V75.9766H160.189V87.6049H158.552L152.568 79.6454H152.512V87.379H150.31ZM148.221 75.9766V87.379H145.964V75.9766H148.221ZM139.36 77.7824V81.2267H139.586C140.828 81.2267 141.675 80.8307 141.675 79.4767C141.675 78.1227 140.828 77.7824 139.643 77.7824H139.36ZM141.562 82.5807L144.779 87.379H142.126L139.417 82.8066H139.36V87.379H137.159V75.9766H140.15C142.408 75.9766 143.932 76.9932 143.932 79.4195C143.932 80.8307 143.142 82.299 141.562 82.5807ZM126.661 82.8624V75.9766H128.862V82.3548C128.862 83.8232 128.975 85.7977 130.894 85.7977C132.813 85.7977 132.87 83.8232 132.87 82.3548V75.9766H135.128V82.8624C135.128 85.5718 133.942 87.7179 130.894 87.7179C127.846 87.7179 126.661 85.5718 126.661 82.8624ZM124.742 76.936L123.669 78.5173C123.218 77.8953 122.71 77.6137 121.975 77.6137C121.24 77.6137 120.564 78.1212 120.564 78.8547C120.564 80.7177 125.081 79.927 125.081 83.8232C125.081 86.0236 123.669 87.7179 121.355 87.7179C119.775 87.7179 118.645 86.8142 117.855 85.4588L119.266 84.0476C119.605 84.8955 120.395 85.7419 121.299 85.7419C122.203 85.7419 122.823 84.9513 122.823 84.0476C122.823 82.9196 121.694 82.5807 120.847 82.1861C119.323 81.6213 118.251 80.8307 118.251 79.0806C118.251 77.2176 119.718 75.7507 121.581 75.7507C122.597 75.7507 124.008 76.2025 124.742 76.936ZM113.284 83.1455L111.872 79.0249H111.815L110.63 83.1455H113.284ZM113.961 84.9513H109.954L109.05 87.379H106.679L111.139 75.7507H112.832L117.178 87.379H114.808L113.961 84.9513ZM105.663 77.8953H102.051V80.436H105.55V82.3548H102.051V85.4588H105.663V87.379H99.7937V75.9766H105.663V77.8953ZM96.1807 87.379L95.2213 80.3231L92.6248 87.5477H91.8914L89.3507 80.3231L88.3355 87.379H86.0779L88.0524 75.7507H89.5766L92.3989 83.2012L95.1084 75.7507H96.6883L98.4383 87.379H96.1807ZM77.6666 75.9766V85.4588H80.8278V87.379H75.4662V75.9766H77.6666ZM70.4419 83.1455L69.0308 79.0249H68.975L67.7325 83.1455H70.4419ZM71.0639 84.9513H67.112L66.1526 87.379H63.8378L68.2973 75.7507H69.9901L74.2809 87.379H71.9103L71.0639 84.9513ZM62.7097 75.9766V87.379H60.4521V75.9766H62.7097ZM58.5334 76.3712V79.0249C57.9686 78.2914 57.0093 77.7824 56.0484 77.7824C53.961 77.7824 52.7185 79.7583 52.7185 81.6771C52.7185 83.5958 54.0167 85.5718 56.0484 85.5718C57.0093 85.5718 57.9686 85.0642 58.5334 84.3865V87.0402C57.7427 87.379 56.8963 87.7179 55.9927 87.7179C52.7757 87.7179 50.4051 84.8955 50.4051 81.79C50.4051 78.6846 52.7185 75.7507 56.0484 75.7507C56.9521 75.7507 57.7985 75.9194 58.5334 76.3712ZM48.994 77.8953H45.3252V80.436H48.881V82.3548H45.3252V85.4588H48.994V87.379H43.1233V75.9766H48.994V77.8953ZM36.9153 77.8396V81.2825H37.3656C38.6639 81.2825 39.3988 81.0008 39.3988 79.5324C39.3988 78.064 38.5509 77.8396 37.3099 77.8396H36.9153ZM36.9153 83.0883V87.379H34.6562V75.9766H37.7045C40.1322 75.9766 41.6564 76.936 41.6564 79.5324C41.6564 81.9602 40.3581 83.0883 38.0433 83.0883H36.9153ZM32.6817 76.936L31.6651 78.5173C31.2705 77.8953 30.7058 77.6137 29.9723 77.6137C29.2388 77.6137 28.5611 78.1212 28.5611 78.8547C28.5611 80.7177 33.0763 79.927 33.0763 83.8232C33.0763 86.0236 31.6651 87.7179 29.2946 87.7179C27.7704 87.7179 26.5852 86.8142 25.8517 85.4588L27.2629 84.0476C27.5445 84.8955 28.3352 85.7419 29.2946 85.7419C30.254 85.7419 30.763 84.9513 30.763 84.0476C30.763 82.9196 29.6892 82.5807 28.787 82.1861C27.3186 81.6213 26.3035 80.8307 26.3035 79.0806C26.3035 77.2176 27.6575 75.7507 29.5762 75.7507C30.5928 75.7507 32.004 76.2025 32.6817 76.936ZM17.8364 87.379L16.9342 80.3231H16.877L14.3377 87.5477H13.5471L11.0636 80.3231H11.0078L9.99124 87.379H7.78939L9.70814 75.7507H11.288L14.0532 83.2012L16.7626 75.7507H18.3425L20.0368 87.379H17.835H17.8364ZM2.25761 77.8396V81.2825H2.65223C4.00622 81.2825 4.68393 81.0008 4.68393 79.5324C4.68393 78.064 3.83751 77.8396 2.65223 77.8396H2.25761ZM2.25761 83.0883V87.379H0V75.9766H3.04827C5.41883 75.9766 6.94297 76.936 6.94297 79.5324C6.94297 81.9602 5.64474 83.0883 3.32994 83.0883H2.25761Z" fill="white"/>
    <path fill-rule="evenodd" clip-rule="evenodd" d="M233.793 107.19L233.68 106.062C233.962 106.118 234.188 106.175 234.357 106.175C234.64 106.175 234.866 106.118 235.034 106.006C235.203 105.893 235.316 105.78 235.429 105.611C235.486 105.499 235.655 105.217 235.825 104.652C235.825 104.596 235.881 104.539 235.938 104.426L233.171 97.0328H234.47L236.051 101.322C236.22 101.83 236.388 102.339 236.558 103.015C236.671 102.394 236.84 101.83 237.066 101.322L238.59 97.0328H239.888L237.123 104.539C236.784 105.33 236.558 105.837 236.333 106.176C236.164 106.571 235.938 106.854 235.599 107.08C235.316 107.249 235.034 107.362 234.583 107.362C234.357 107.362 234.131 107.304 233.793 107.191V107.19ZM225.947 104.425V97.0314H227.132V98.1037C227.64 97.2573 228.43 96.8613 229.447 96.8613C229.899 96.8613 230.236 96.9742 230.632 97.1444C231.027 97.2573 231.308 97.4818 231.479 97.7077C231.647 97.9908 231.817 98.3296 231.873 98.6685C231.93 98.893 231.986 99.289 231.986 99.8538V104.425H230.688V99.9095C230.688 99.402 230.632 99.0059 230.575 98.78C230.462 98.4984 230.293 98.3296 230.067 98.1595C229.786 98.0466 229.503 97.9336 229.221 97.9336C228.656 97.9336 228.204 98.1595 227.81 98.4426C227.415 98.78 227.245 99.402 227.245 100.417V104.425H225.947ZM222.898 103.521C222.448 103.86 222.052 104.142 221.6 104.312C221.15 104.481 220.698 104.593 220.189 104.593C219.4 104.593 218.778 104.368 218.327 103.973C217.876 103.521 217.706 103.071 217.706 102.392C217.706 102.11 217.818 101.714 217.931 101.432C218.102 101.151 218.327 100.925 218.609 100.755C218.835 100.529 219.117 100.416 219.456 100.36C219.739 100.303 220.076 100.247 220.585 100.134C221.6 100.021 222.335 99.9081 222.785 99.6822C222.843 99.5135 222.843 99.4005 222.843 99.4005C222.843 98.8915 222.673 98.4969 222.448 98.3282C222.109 98.0451 221.657 97.8764 221.093 97.8764C220.472 97.8764 220.02 97.9894 219.739 98.1581C219.456 98.4412 219.23 98.7786 219.117 99.3433L217.876 99.1175C217.989 98.6099 218.157 98.1581 218.44 97.8764C218.722 97.5376 219.061 97.2559 219.568 97.1429C220.02 96.9728 220.585 96.8598 221.206 96.8598C221.883 96.8598 222.335 96.9728 222.73 97.0857C223.124 97.1987 223.407 97.4246 223.633 97.6505C223.802 97.8764 223.915 98.1581 224.028 98.4969V101.319C224.028 102.449 224.028 103.182 224.084 103.521C224.141 103.803 224.254 104.086 224.423 104.425H223.124C223.069 104.143 222.956 103.804 222.898 103.521ZM222.785 100.699C222.335 100.867 221.657 101.038 220.754 101.151C220.246 101.264 219.852 101.319 219.681 101.376C219.456 101.488 219.287 101.601 219.174 101.827C219.061 101.997 219.004 102.223 219.004 102.392C219.004 102.73 219.117 103.012 219.4 103.238C219.681 103.407 220.02 103.52 220.472 103.52C220.98 103.52 221.374 103.407 221.77 103.294C222.109 103.068 222.391 102.729 222.617 102.334C222.73 102.109 222.785 101.657 222.785 101.149V100.697V100.699ZM210.255 107.19V97.03H211.384V97.9894C211.666 97.5933 211.949 97.3117 212.288 97.1429C212.626 96.9728 213.022 96.8598 213.529 96.8598C214.094 96.8598 214.659 97.03 215.166 97.3117C215.674 97.6505 215.957 98.1581 216.239 98.7228C216.52 99.3434 216.633 99.9653 216.633 100.642C216.633 101.376 216.464 102.11 216.181 102.675C215.957 103.295 215.561 103.747 214.996 104.084C214.546 104.423 213.981 104.592 213.416 104.592C212.964 104.592 212.626 104.479 212.288 104.31C211.949 104.084 211.723 103.859 211.497 103.577V107.19H210.255ZM211.384 100.755C211.384 101.658 211.553 102.336 211.949 102.843C212.344 103.295 212.738 103.521 213.303 103.521C213.868 103.521 214.376 103.295 214.714 102.786C215.109 102.336 215.335 101.601 215.335 100.642C215.335 99.6822 215.109 99.0045 214.714 98.4969C214.376 98.1023 213.868 97.8192 213.416 97.8192C212.851 97.8192 212.4 98.1023 211.949 98.5541C211.61 99.1175 211.384 99.7952 211.384 100.755ZM198.459 104.423V97.03H199.532V98.1023C199.758 97.7063 200.095 97.3674 200.434 97.1429C200.83 96.9728 201.337 96.8598 201.789 96.8598C202.353 96.8598 202.749 96.9728 203.143 97.1987C203.426 97.4246 203.708 97.7635 203.821 98.1581C204.442 97.2559 205.175 96.8598 206.134 96.8598C206.812 96.8598 207.433 97.0857 207.771 97.4804C208.223 97.8764 208.393 98.4969 208.393 99.3433V104.423H207.151V99.7394C207.151 99.2876 207.095 98.8915 207.038 98.6671C206.925 98.4412 206.812 98.3282 206.586 98.1581C206.417 98.0451 206.134 97.9322 205.853 97.9322C205.345 97.9322 204.893 98.1581 204.612 98.4412C204.216 98.7786 204.047 99.4005 204.047 100.134V104.423H202.804V99.5693C202.804 99.0617 202.691 98.6099 202.466 98.3282C202.297 98.1023 201.958 97.9322 201.506 97.9322C201.167 97.9322 200.83 98.0451 200.491 98.271C200.265 98.4412 200.039 98.6671 199.869 99.0617C199.758 99.4005 199.7 99.9081 199.7 100.529V104.423H198.459ZM190.105 100.699C190.105 99.4005 190.5 98.3282 191.233 97.6505C191.911 97.1429 192.644 96.8598 193.548 96.8598C194.565 96.8598 195.354 97.1429 196.032 97.8764C196.652 98.4969 196.991 99.4005 196.991 100.586C196.991 101.545 196.822 102.336 196.539 102.843C196.258 103.351 195.863 103.803 195.298 104.084C194.789 104.423 194.226 104.592 193.548 104.592C192.532 104.592 191.685 104.197 191.007 103.52C190.387 102.898 190.105 101.938 190.105 100.697V100.699ZM191.346 100.699C191.346 101.601 191.572 102.336 191.968 102.786C192.419 103.295 192.928 103.521 193.548 103.521C194.169 103.521 194.678 103.295 195.128 102.786C195.467 102.336 195.693 101.601 195.693 100.642C195.693 99.7394 195.467 99.0617 195.128 98.6099C194.678 98.1581 194.169 97.8764 193.548 97.8764C192.928 97.8764 192.419 98.1581 191.968 98.6099C191.572 99.0617 191.346 99.7394 191.346 100.699ZM187.735 100.812L189.089 101.151C188.807 102.279 188.299 103.125 187.565 103.69C186.775 104.255 185.927 104.593 184.855 104.593C183.783 104.593 182.936 104.368 182.203 103.86C181.525 103.408 181.018 102.786 180.679 101.94C180.284 101.093 180.114 100.19 180.114 99.2304C180.114 98.1581 180.34 97.1987 180.679 96.4652C181.131 95.6746 181.695 95.1098 182.429 94.6594C183.162 94.2634 184.009 94.0947 184.855 94.0947C185.872 94.0947 186.775 94.3206 187.452 94.8281C188.129 95.3357 188.637 96.1264 188.92 97.03L187.565 97.3117C187.339 96.5782 187.057 96.0692 186.549 95.7318C186.098 95.3357 185.533 95.2227 184.855 95.2227C184.066 95.2227 183.444 95.3929 182.936 95.7875C182.372 96.1821 182.034 96.6339 181.864 97.2559C181.638 97.9322 181.525 98.5541 181.525 99.2304C181.525 100.077 181.638 100.812 181.921 101.432C182.09 102.11 182.542 102.562 183.049 102.899C183.614 103.238 184.122 103.351 184.799 103.351C185.533 103.351 186.153 103.181 186.662 102.73C187.17 102.336 187.565 101.658 187.735 100.812ZM168.092 100.699C168.092 99.4005 168.43 98.3282 169.221 97.6505C169.841 97.1429 170.632 96.8598 171.535 96.8598C172.55 96.8598 173.341 97.1429 173.962 97.8764C174.582 98.4969 174.921 99.4005 174.921 100.586C174.921 101.545 174.808 102.336 174.526 102.843C174.245 103.351 173.793 103.803 173.284 104.084C172.721 104.423 172.156 104.592 171.535 104.592C170.463 104.592 169.615 104.197 169.052 103.52C168.374 102.898 168.092 101.938 168.092 100.697V100.699ZM169.333 100.699C169.333 101.601 169.559 102.336 169.954 102.786C170.406 103.295 170.858 103.521 171.535 103.521C172.156 103.521 172.608 103.295 173.059 102.786C173.51 102.336 173.623 101.601 173.623 100.642C173.623 99.7394 173.51 99.0617 173.059 98.6099C172.608 98.1581 172.156 97.8764 171.535 97.8764C170.858 97.8764 170.406 98.1581 169.954 98.6099C169.559 99.0617 169.333 99.7394 169.333 100.699ZM160.642 104.423V97.03H161.77V98.1023C162.278 97.2559 163.125 96.8598 164.141 96.8598C164.535 96.8598 164.987 96.9728 165.383 97.1429C165.72 97.2559 166.004 97.4804 166.172 97.7063C166.398 97.9894 166.455 98.3282 166.511 98.6671C166.568 98.8915 166.624 99.2876 166.624 99.8523V104.423H165.439V99.9081C165.439 99.4005 165.383 99.0045 165.27 98.7786C165.1 98.4969 164.987 98.3282 164.705 98.1581C164.479 98.0451 164.198 97.9322 163.859 97.9322C163.294 97.9322 162.9 98.1581 162.448 98.4412C162.109 98.7786 161.94 99.4005 161.94 100.416V104.423H160.642ZM157.594 103.52C157.085 103.859 156.69 104.14 156.238 104.31C155.844 104.479 155.336 104.592 154.884 104.592C154.094 104.592 153.473 104.366 152.965 103.972C152.569 103.52 152.344 103.069 152.344 102.39C152.344 102.109 152.456 101.712 152.627 101.431C152.795 101.149 152.965 100.923 153.247 100.753C153.529 100.527 153.812 100.414 154.151 100.358C154.375 100.301 154.771 100.246 155.223 100.133C156.238 100.02 157.029 99.9067 157.481 99.6808V99.3991C157.481 98.8901 157.368 98.4955 157.085 98.3268C156.803 98.0437 156.351 97.875 155.731 97.875C155.11 97.875 154.714 97.9879 154.432 98.1566C154.151 98.4397 153.981 98.7772 153.812 99.3419L152.569 99.116C152.682 98.6085 152.853 98.1566 153.134 97.875C153.36 97.5361 153.755 97.2545 154.207 97.1415C154.714 96.9714 155.223 96.8584 155.899 96.8584C156.521 96.8584 157.029 96.9714 157.424 97.0843C157.82 97.1973 158.045 97.4232 158.327 97.6491C158.44 97.875 158.609 98.1566 158.666 98.4955C158.722 98.7214 158.722 99.116 158.722 99.625V101.318C158.722 102.447 158.779 103.181 158.835 103.52C158.892 103.801 159.005 104.084 159.174 104.423H157.82C157.707 104.142 157.594 103.803 157.594 103.52ZM157.481 100.697C157.029 100.866 156.351 101.036 155.449 101.149C154.94 101.262 154.545 101.318 154.319 101.375C154.151 101.487 153.981 101.6 153.812 101.825C153.755 101.996 153.699 102.221 153.699 102.39C153.699 102.729 153.812 103.011 154.094 103.237C154.319 103.405 154.714 103.518 155.166 103.518C155.673 103.518 156.07 103.405 156.464 103.292C156.86 103.066 157.085 102.728 157.255 102.333C157.368 102.107 157.481 101.655 157.481 101.148V100.696V100.697ZM150.482 101.657L151.723 101.825C151.61 102.673 151.215 103.35 150.706 103.801C150.143 104.309 149.465 104.592 148.619 104.592C147.66 104.592 146.812 104.197 146.248 103.52C145.626 102.898 145.345 101.938 145.345 100.697C145.345 99.9639 145.458 99.2862 145.684 98.6656C145.965 98.0437 146.361 97.5919 146.925 97.3102C147.489 97.0286 147.998 96.8584 148.619 96.8584C149.465 96.8584 150.086 97.0843 150.651 97.4789C151.102 97.875 151.441 98.4397 151.61 99.229L150.369 99.3991C150.256 98.8901 150.03 98.4955 149.804 98.2696C149.521 98.0437 149.127 97.875 148.732 97.875C148.054 97.875 147.602 98.1566 147.208 98.5527C146.756 99.0031 146.643 99.738 146.643 100.697C146.643 101.657 146.756 102.39 147.151 102.842C147.547 103.294 148.054 103.52 148.619 103.52C149.127 103.52 149.578 103.351 149.917 103.068C150.199 102.729 150.425 102.334 150.482 101.657ZM142.861 101.996L144.16 102.164C143.934 102.898 143.595 103.52 143.031 103.914C142.467 104.366 141.733 104.592 140.885 104.592C139.813 104.592 138.967 104.197 138.402 103.52C137.726 102.898 137.442 101.938 137.442 100.753C137.442 99.5678 137.726 98.5527 138.402 97.875C139.024 97.1973 139.813 96.8584 140.83 96.8584C141.846 96.8584 142.58 97.1415 143.256 97.875C143.878 98.4955 144.16 99.4549 144.16 100.697V101.036H138.685C138.741 101.825 138.967 102.39 139.418 102.842C139.757 103.294 140.322 103.52 140.885 103.52C141.394 103.52 141.733 103.351 142.071 103.181C142.409 102.898 142.693 102.503 142.861 101.996ZM138.741 100.02H142.861C142.806 99.3991 142.693 98.9473 142.409 98.6085C142.015 98.1566 141.507 97.875 140.83 97.875C140.322 97.875 139.813 98.1009 139.418 98.4397C139.024 98.8344 138.798 99.3991 138.741 100.02ZM126.21 104.422V94.2619H128.186L130.557 101.375C130.783 102.109 130.951 102.56 131.064 102.898C131.121 102.503 131.403 101.996 131.573 101.318L134.057 94.2619H135.805V104.422H134.507V95.899L131.573 104.422H130.331L127.453 95.7303V104.422H126.21ZM114.187 104.422L116.897 100.527L114.413 97.0285H115.937L117.067 98.7214C117.293 99.116 117.461 99.3991 117.574 99.5678C117.8 99.2862 117.969 99.0031 118.139 98.7772L119.38 97.0285H120.904L118.308 100.471L121.074 104.422H119.55L118.026 102.109L117.632 101.431L115.711 104.422H114.187ZM111.874 95.6731V94.2619H113.115V95.6731H111.874ZM111.874 104.422V97.0285H113.115V104.422H111.874ZM104.027 104.422V97.0285H105.157V98.1009C105.664 97.2545 106.455 96.8584 107.472 96.8584C107.866 96.8584 108.318 96.9714 108.713 97.1415C109.051 97.2545 109.333 97.4789 109.559 97.7048C109.729 97.9879 109.785 98.3268 109.898 98.6656C109.955 98.8901 109.955 99.2862 109.955 99.8509V104.422H108.77V99.9067C108.77 99.3991 108.713 99.0031 108.6 98.7772C108.487 98.4955 108.318 98.3268 108.035 98.1566C107.809 98.0437 107.527 97.9307 107.188 97.9307C106.624 97.9307 106.229 98.1566 105.835 98.4397C105.438 98.7772 105.27 99.3991 105.27 100.414V104.422H104.027ZM101.149 101.996L102.392 102.164C102.279 102.898 101.883 103.52 101.319 103.914C100.755 104.366 100.077 104.592 99.2304 104.592C98.1581 104.592 97.3116 104.197 96.6339 103.52C96.0692 102.898 95.7303 101.938 95.7303 100.753C95.7303 99.5678 96.0692 98.5527 96.6897 97.875C97.3116 97.1973 98.1581 96.8584 99.1732 96.8584C100.134 96.8584 100.923 97.1415 101.544 97.875C102.166 98.4955 102.447 99.4549 102.447 100.697V101.036H97.0285C97.0857 101.825 97.3116 102.39 97.6491 102.842C98.1009 103.294 98.6099 103.52 99.2304 103.52C99.6822 103.52 100.077 103.351 100.416 103.181C100.697 102.898 100.98 102.503 101.149 101.996ZM97.0857 100.02H101.206C101.149 99.3991 100.98 98.9473 100.697 98.6085C100.303 98.1566 99.7952 97.875 99.1732 97.875C98.5513 97.875 98.1009 98.1009 97.7063 98.4397C97.3116 98.8344 97.1415 99.3991 97.0857 100.02ZM87.828 100.697C87.828 99.3991 88.1668 98.3268 88.9575 97.6491C89.578 97.1415 90.3115 96.8584 91.2151 96.8584C92.2874 96.8584 93.0781 97.1415 93.6986 97.875C94.3191 98.4955 94.658 99.3991 94.658 100.584C94.658 101.544 94.545 102.334 94.2634 102.842C93.9803 103.35 93.5299 103.801 93.0209 104.083C92.4576 104.422 91.8928 104.591 91.2151 104.591C90.1985 104.591 89.3521 104.196 88.7316 103.518C88.1111 102.896 87.828 101.937 87.828 100.696V100.697ZM89.0704 100.697C89.0704 101.6 89.2392 102.334 89.691 102.785C90.0856 103.294 90.5946 103.52 91.2151 103.52C91.8928 103.52 92.3446 103.294 92.795 102.785C93.191 102.334 93.3597 101.6 93.3597 100.64C93.3597 99.738 93.191 99.0603 92.795 98.6085C92.3446 98.1566 91.8356 97.875 91.2151 97.875C90.5946 97.875 90.0856 98.1566 89.691 98.6085C89.2392 99.0603 89.0704 99.738 89.0704 100.697ZM80.3774 104.422V94.2619H81.6199V97.875C82.1847 97.1973 82.9181 96.8584 83.8203 96.8584C84.3851 96.8584 84.8369 96.9714 85.2315 97.1415C85.6276 97.366 85.9092 97.7048 86.0794 98.1009C86.2481 98.4397 86.361 99.0031 86.361 99.738V104.422H85.1186V99.738C85.1186 99.116 84.9498 98.6084 84.7239 98.3268C84.4423 98.1009 84.0462 97.9307 83.5958 97.9307C83.1998 97.9307 82.8609 98.0437 82.5221 98.2696C82.1847 98.4397 81.9588 98.6656 81.8458 99.0031C81.7329 99.3419 81.6199 99.7937 81.6199 100.358V104.422H80.3774ZM71.1211 104.422V94.2619H74.9028C75.6363 94.2619 76.0881 94.2619 76.4827 94.3191C76.9345 94.3749 77.3864 94.545 77.7252 94.8267C78.0641 95.0526 78.3457 95.3343 78.5159 95.7861C78.6846 96.1807 78.7975 96.6897 78.7975 97.1415C78.7975 98.0437 78.5716 98.7772 78.0069 99.3991C77.4993 99.9639 76.4827 100.301 75.0158 100.301H72.4751V104.422H71.1211ZM72.4751 99.0603H75.0716C75.9194 99.0603 76.5399 98.8901 76.8788 98.5527C77.2734 98.2696 77.4435 97.8178 77.4435 97.1973C77.4435 96.8027 77.3306 96.4066 77.1047 96.1249C76.8788 95.8433 76.6529 95.6174 76.314 95.5044C76.0324 95.4472 75.6363 95.3915 75.0158 95.3915H72.4751V99.0603Z" fill="white"/>
    <path fill-rule="evenodd" clip-rule="evenodd" d="M137.161 0C155.731 0 170.971 15.2414 170.971 33.6983H136.935V67.4537C118.421 67.4537 103.407 52.4955 103.407 33.6983C103.407 14.9011 118.421 0 137.161 0Z" fill="white"/>
    <path fill-rule="evenodd" clip-rule="evenodd" d="M198.459 55.2606L240 4.96701V67.4537H146.923L198.459 4.96701V55.2606Z" fill="white"/>
</svg>
