<svg width="381" height="97" viewBox="0 0 381 97" fill="none" xmlns="http://www.w3.org/2000/svg">
    <path d="M31.5 93.9878C28.6 95.4878 25.5 96.0878 22.3 96.0878C15.4 96.0878 10.4 91.5878 10.4 84.4878C10.4 77.3878 15.4 72.8878 22.3 72.8878C25.8 72.8878 28.9 73.6878 31.1 75.6878L27.7 79.3878C26.4 77.9878 24.8 77.2878 22.3 77.2878C18.2 77.2878 15.5 80.2878 15.5 84.3878C15.5 88.4878 18.2 91.4878 22.3 91.4878C24.4 91.4878 26 90.8878 26.9 90.3878V86.7878H22.9V82.2878H31.5V93.9878ZM38.3 73.5878H46.8C51.3 73.5878 55.1 75.1878 55.1 80.2878C55.1 83.3878 53.5 85.7878 50.3 86.2878L55.9 95.5878H50.1L45.5 86.7878H43.1V95.5878H38.3V73.5878ZM43.1 82.6878H46C47.8 82.6878 50.1 82.5878 50.1 80.1878C50.1 77.9878 48.1 77.6878 46.3 77.6878H43.1V82.6878ZM71.6 72.9878C78.5 72.9878 83.5 77.4878 83.5 84.5878C83.5 91.6878 78.5 96.1878 71.6 96.1878C64.7 96.1878 59.7 91.6878 59.7 84.5878C59.7 77.4878 64.7 72.9878 71.6 72.9878ZM71.6 91.6878C75.7 91.6878 78.4 88.6878 78.4 84.5878C78.4 80.4878 75.7 77.4878 71.6 77.4878C67.5 77.4878 64.8 80.4878 64.8 84.5878C64.7 88.6878 67.4 91.6878 71.6 91.6878ZM107.5 87.0878C107.5 92.2878 104.3 96.1878 98.2 96.1878C92.1 96.1878 88.9 92.2878 88.9 87.0878V73.5878H93.8V86.8878C93.8 89.5878 95.7 91.6878 98.2 91.6878C100.7 91.6878 102.6 89.6878 102.6 86.8878V73.5878H107.4V87.0878H107.5ZM114.2 73.5878H122.4C127 73.5878 130.8 75.0878 130.8 80.2878C130.8 85.4878 127.3 86.9878 122.7 86.9878H119.2V95.5878H114.3V73.5878H114.2ZM119 82.8878H122.2C123.9 82.8878 125.6 82.2878 125.6 80.2878C125.6 77.9878 123.3 77.6878 121.4 77.6878H118.9V82.8878H119ZM64.6 27.4878L82.9 9.18779C84 8.08779 84.7 6.78779 84.7 5.48779C84.7 4.28779 84.2 3.0878 83.1 2.0878C82 0.987799 80.9 0.487793 79.7 0.487793C78.4 0.487793 77.1 1.0878 76 2.2878L50.7 27.5878L76 52.8878C77.2 53.9878 78.4 54.6878 79.7 54.6878C80.9 54.6878 82.1 54.1878 83.1 53.0878C84.2 51.9878 84.7 50.8878 84.7 49.6878C84.7 48.3878 84.1 47.1878 82.9 45.9878L64.6 27.4878Z" fill="white"/>
    <path d="M30.9 0.587936H5.50002C2.30002 0.587936 0.400024 2.38793 0.400024 5.48793C0.400024 8.58793 2.30002 10.3879 5.50002 10.3879H21.5V49.2879C21.5 52.4879 23.3 54.3879 26.4 54.3879C29.5 54.3879 31.3 52.4879 31.3 49.2879V10.3879H47.2C50.4 10.3879 52.3 8.58793 52.3 5.48793C52.3 2.38793 50.4 0.587936 47.2 0.587936H30.9ZM119.1 5.58794V22.5879H89.5C86.3 22.5879 84.4 24.3879 84.4 27.4879C84.4 30.5879 86.3 32.3879 89.5 32.3879H119.1V49.3879C119.1 52.5879 120.9 54.4879 124 54.4879C127.1 54.4879 128.9 52.5879 128.9 49.3879V5.58794C128.9 2.38794 127.1 0.48793 124 0.48793C120.9 0.38793 119.1 2.38794 119.1 5.58794ZM189 0.387939H179.2C177.7 0.387939 176.8 1.28793 176.8 2.68793C176.8 4.08793 177.7 4.98793 179.2 4.98793H184.6V23.0879C184.6 24.5879 185.5 25.4879 186.9 25.4879C188.3 25.4879 189.2 24.5879 189.2 23.0879V4.98793H194.6C196.1 4.98793 197 4.08793 197 2.68793C197 1.28793 196 0.387939 194.5 0.387939H189ZM212.9 12.9879L221.4 4.48793C221.9 3.98793 222.2 3.38793 222.2 2.78793C222.2 2.18793 222.1 1.58794 221.6 1.08794C221.1 0.587936 220.5 0.48793 219.9 0.48793C219.3 0.48793 218.7 0.787933 218.2 1.28793L206.5 12.9879L218.2 24.6879C218.7 25.1879 219.3 25.4879 219.9 25.4879C220.5 25.4879 221.1 25.3879 221.6 24.8879C222.1 24.3879 222.2 23.7879 222.2 23.1879C222.2 22.5879 221.9 21.9879 221.4 21.4879L212.9 12.9879ZM204.1 0.387939C202.7 0.387939 201.8 1.28793 201.8 2.78793V23.0879C201.8 24.5879 202.7 25.4879 204.1 25.4879C205.5 25.4879 206.4 24.5879 206.4 23.0879V2.88794C206.4 1.28794 205.6 0.387939 204.1 0.387939ZM245.8 0.387939C244.4 0.387939 243.5 1.28793 243.5 2.78793V10.5879H232.3V2.78793C232.3 1.28793 231.4 0.387939 230 0.387939C228.6 0.387939 227.7 1.28793 227.7 2.78793V23.0879C227.7 24.5879 228.6 25.4879 230 25.4879C231.4 25.4879 232.3 24.5879 232.3 23.0879V15.2879H243.5V23.0879C243.5 24.5879 244.4 25.4879 245.8 25.4879C247.2 25.4879 248.1 24.5879 248.1 23.0879V2.78793C248.1 1.28793 247.2 0.387939 245.8 0.387939ZM318.1 35.4879H308.2C306.7 35.4879 305.8 36.3879 305.8 37.7879C305.8 39.1879 306.7 40.0879 308.2 40.0879H313.6V58.1879C313.6 59.6879 314.5 60.5879 315.9 60.5879C317.3 60.5879 318.2 59.6879 318.2 58.1879V40.0879H323.6C325.1 40.0879 326 39.1879 326 37.7879C326 36.3879 325 35.4879 323.5 35.4879H318.1ZM218.1 45.6879V39.9879H223.1C224.7 39.9879 226 41.0879 226 42.7879C226 44.5879 224.6 45.6879 223.1 45.6879H218.1ZM230.4 56.6879L225.5 49.7879C229.1 48.8879 230.5 45.9879 230.5 42.6879C230.5 39.1879 228 35.4879 223.7 35.4879H216.3C214.7 35.4879 213.5 36.4879 213.5 38.0879V57.8879C213.5 59.5879 214.4 60.5879 215.9 60.5879C217.4 60.5879 218.1 59.5879 218.1 57.8879V50.2879H220.3L226.7 59.3879C227.1 59.9879 227.7 60.3879 228.3 60.4879C228.9 60.5879 229.5 60.5879 230.1 60.1879C230.8 59.6879 231.6 58.3879 230.4 56.6879ZM206.9 37.9879C206.9 36.4879 206.1 35.5879 204.6 35.5879C203.2 35.5879 202.3 36.4879 202.3 37.9879V58.2879C202.3 59.7879 203.2 60.6879 204.6 60.6879C206 60.6879 206.9 59.7879 206.9 58.2879V37.9879ZM284.5 70.6879H274.6C273.1 70.6879 272.2 71.5879 272.2 72.9879C272.2 74.3879 273.1 75.2879 274.6 75.2879H280V93.3879C280 94.8879 280.9 95.7879 282.3 95.7879C283.7 95.7879 284.6 94.8879 284.6 93.3879V75.2879H290C291.5 75.2879 292.4 74.3879 292.4 72.9879C292.4 71.5879 291.4 70.6879 289.9 70.6879H284.5ZM182.5 77.9879C182.5 75.6879 184.5 75.0879 186.1 75.0879C189.7 75.0879 190.6 75.7879 191.8 75.7879C193.1 75.7879 193.9 74.9879 193.9 73.7879C193.9 73.5879 194.4 70.7879 186.2 70.7879C179.4 70.7879 177.9 75.6879 177.9 78.2879C177.9 88.4879 191.1 82.6879 191.2 87.9879C191.2 90.6879 188.2 91.3879 185.7 91.3879C183.7 91.3879 181.8 90.6879 180.5 90.6879C178.6 90.6879 178 91.7879 178 92.7879C178 94.9879 182.5 95.7879 186 95.7879C194.2 95.7879 195.9 90.0879 195.9 87.9879C195.8 77.5879 182.5 83.1879 182.5 77.9879ZM367 77.9879C367 75.6879 369 75.0879 370.6 75.0879C374.2 75.0879 375.1 75.7879 376.3 75.7879C377.6 75.7879 378.4 74.9879 378.4 73.7879C378.4 73.5879 378.9 70.7879 370.7 70.7879C363.9 70.7879 362.4 75.6879 362.4 78.2879C362.4 88.4879 375.6 82.6879 375.7 87.9879C375.7 90.6879 372.7 91.3879 370.2 91.3879C368.2 91.3879 366.3 90.6879 365 90.6879C363.1 90.6879 362.5 91.7879 362.5 92.7879C362.5 94.9879 367 95.7879 370.5 95.7879C378.7 95.7879 380.4 90.0879 380.4 87.9879C380.2 77.5879 367 83.1879 367 77.9879ZM265.4 70.4879C264 70.4879 263.1 71.3879 263.1 72.8879V85.2879C263.1 88.3879 260.4 90.9879 257.2 90.9879C254.1 90.9879 251.5 88.6879 251.3 85.7879V72.8879C251.3 71.3879 250.4 70.4879 249 70.4879C247.6 70.4879 246.7 71.3879 246.7 72.8879V85.5879C246.7 91.4879 251.4 95.7879 257.2 95.7879C263.1 95.7879 267.7 91.2879 267.7 85.4879V72.8879C267.7 71.3879 266.9 70.4879 265.4 70.4879ZM302.1 73.0879C302.1 71.5879 301.3 70.6879 299.8 70.6879C298.4 70.6879 297.5 71.5879 297.5 73.0879V93.3879C297.5 94.8879 298.4 95.7879 299.8 95.7879C301.2 95.7879 302.1 94.8879 302.1 93.3879V73.0879ZM211.2 91.2879C207 91.2879 204.3 87.2879 204.3 83.1879C204.3 79.0879 207 75.2879 211.2 75.2879C215.4 75.2879 218.1 79.0879 218.1 83.1879C218.1 87.3879 215.4 91.2879 211.2 91.2879ZM222.8 83.2879C222.8 76.1879 218.3 70.7879 211.2 70.7879C204.2 70.7879 199.6 76.2879 199.6 83.2879C199.6 90.2879 203.7 95.7879 211.2 95.7879C218.7 95.7879 222.8 90.2879 222.8 83.2879ZM319.3 91.2879C315.1 91.2879 312.4 87.2879 312.4 83.1879C312.4 79.0879 315.1 75.2879 319.3 75.2879C323.5 75.2879 326.2 79.0879 326.2 83.1879C326.2 87.3879 323.5 91.2879 319.3 91.2879ZM330.9 83.2879C330.9 76.1879 326.4 70.7879 319.3 70.7879C312.3 70.7879 307.7 76.2879 307.7 83.2879C307.7 90.2879 311.8 95.7879 319.3 95.7879C326.8 95.7879 330.9 90.2879 330.9 83.2879ZM227.7 95.7879H240.7C242.2 95.7879 243.1 94.8879 243.1 93.4879C243.1 92.0879 242.2 91.1879 240.7 91.1879H232.3V73.0879C232.3 71.6879 231.5 70.6879 230 70.6879C228.6 70.6879 227.7 71.5879 227.7 73.0879V95.7879ZM354.2 70.6879C352.8 70.6879 351.9 71.5879 351.9 73.0879V86.7879L340.5 71.7879C340.1 71.3879 339.6 70.6879 338.4 70.6879C337 70.6879 336.1 71.5879 336.1 73.0879V93.2879C336.1 94.7879 337 95.6879 338.4 95.6879C339.8 95.6879 340.7 94.7879 340.7 93.2879V79.5879L352.1 94.6879C352.6 95.1879 352.9 95.7879 354.2 95.7879C355.6 95.7879 356.5 94.8879 356.5 93.3879V73.0879C356.5 71.5879 355.6 70.6879 354.2 70.6879ZM290.2 45.6879V39.9879H295.2C296.8 39.9879 298.1 41.0879 298.1 42.7879C298.1 44.5879 296.7 45.6879 295.2 45.6879H290.2ZM302.6 56.6879L297.7 49.7879C301.3 48.8879 302.7 45.9879 302.7 42.6879C302.7 39.1879 300.2 35.4879 295.9 35.4879H288.5C286.9 35.4879 285.7 36.4879 285.7 38.0879V57.8879C285.7 59.5879 286.6 60.5879 288.1 60.5879C289.6 60.5879 290.3 59.5879 290.3 57.8879V50.2879H292.5L298.9 59.3879C299.3 59.9879 299.9 60.3879 300.5 60.4879C301.1 60.5879 301.7 60.5879 302.3 60.1879C302.9 59.5879 303.7 58.3879 302.6 56.6879ZM184.2 49.7879L187.5 40.0879L190.8 49.8879C189.2 49.7879 186.8 49.7879 184.2 49.7879ZM198.1 57.1879L191.1 38.1879C190.6 36.7879 189.3 35.2879 187.5 35.3879C185.7 35.3879 184.5 36.7879 183.9 38.1879L176.9 57.1879C176.4 58.5879 176.9 59.7879 178.2 60.1879C179.6 60.6879 180.7 60.0879 181.2 58.6879L182.7 54.2879H192.4L193.8 58.6879C194.3 60.0879 195.4 60.6879 196.8 60.1879C198.1 59.7879 198.6 58.5879 198.1 57.1879ZM269.2 55.9879C265 55.9879 262.3 51.9879 262.3 47.8879C262.3 43.7879 265 39.9879 269.2 39.9879C273.4 39.9879 276.1 43.7879 276.1 47.8879C276.1 52.0879 273.4 55.9879 269.2 55.9879ZM280.8 47.9879C280.8 40.8879 276.3 35.4879 269.2 35.4879C262.2 35.4879 257.6 40.9879 257.6 47.9879C257.6 54.9879 261.7 60.4879 269.2 60.4879C276.7 60.4879 280.8 54.9879 280.8 47.9879ZM241.4 45.8879H246.5C248 45.8879 249.4 44.7879 249.4 42.9879C249.4 41.2879 248 39.9879 246.5 39.9879H241.4V45.8879ZM241.4 50.3879V57.9879C241.4 58.4879 241.4 60.6879 239.1 60.6879C236.8 60.6879 236.8 58.4879 236.8 57.9879V38.0879C236.8 36.3879 238 35.3879 239.6 35.3879H247C251.3 35.3879 253.9 39.0879 253.9 42.6879C253.9 46.5879 251.6 50.3879 246.4 50.3879H241.4Z" fill="white"/>
</svg>
