<svg width="180" height="61" viewBox="0 0 180 61" fill="none" xmlns="http://www.w3.org/2000/svg">
    <g clip-path="url(#clip0_6_8)">
        <path fill-rule="evenodd" clip-rule="evenodd" d="M21.5228 30.1966C21.5228 25.8192 25.0047 22.2577 29.2848 22.2577C33.5654 22.2577 37.0473 25.8192 37.0473 30.1966C37.0473 34.5744 33.5654 38.1354 29.2848 38.1354C25.0047 38.1354 21.5228 34.5744 21.5228 30.1966ZM42.0618 33.412C40.6529 39.2903 35.467 43.651 29.2848 43.651C22.0195 43.651 16.1296 37.6274 16.1296 30.1966C16.1296 22.7658 22.0195 16.7421 29.2848 16.7421C35.467 16.7421 40.6529 21.1033 42.0623 26.9815C46.4538 26.982 55.7697 26.9833 55.811 26.9855C57.3688 27.066 58.5686 28.4312 58.57 30.1966C58.57 38.1971 55.5235 45.7182 49.9925 51.3752C44.4615 57.0323 37.1076 60.1479 29.2853 60.1479C21.481 60.1479 14.1319 57.0271 8.59167 51.3604C3.05139 45.6941 0.00012207 38.1779 0.00012207 30.1966C0.00012207 22.1964 3.04611 14.6749 8.57758 9.01787C14.1086 3.36079 21.4625 0.245605 29.2848 0.245605C39.9911 0.245605 49.8397 6.21714 54.9877 15.8303C55.4042 16.609 55.4852 17.5396 55.2096 18.3831C54.9331 19.2301 54.318 19.9278 53.5228 20.2961C52.0333 20.9859 50.2545 20.3806 49.4725 18.9179C47.6708 15.5487 45.0528 12.6476 41.902 10.5279C38.1555 8.00794 33.7926 6.67612 29.2848 6.67612C26.1781 6.67612 23.1669 7.29714 20.3349 8.5221C17.5971 9.70677 15.1371 11.4034 13.0233 13.5652C10.9098 15.7269 9.25079 18.243 8.09281 21.0428C6.89476 23.9395 6.28758 27.0192 6.28758 30.1966C6.28758 33.3744 6.89476 36.4541 8.09281 39.3498C9.25079 42.1506 10.9098 44.6666 13.0233 46.8279C15.1371 48.9901 17.5971 50.6868 20.3349 51.871C23.1664 53.096 26.1781 53.717 29.2848 53.717C32.392 53.717 35.4028 53.096 38.2348 51.871C40.9725 50.6868 43.4329 48.9901 45.5468 46.8279C47.6602 44.6662 49.3193 42.1501 50.4773 39.3503C51.2623 37.4509 51.7973 35.4564 52.0694 33.412H42.0618Z" fill="#00EE2A"/>
        <path fill-rule="evenodd" clip-rule="evenodd" d="M177.509 39.2719C177.056 39.2719 176.699 39.3759 176.44 39.5844C176.181 39.7928 176.051 40.083 176.051 40.4559C176.051 40.9479 176.374 41.3079 177.02 41.5355L178.333 41.9897C178.864 42.1728 179.249 42.4177 179.487 42.7239C179.726 43.0301 179.845 43.4039 179.845 43.8461C179.845 44.4524 179.63 44.9288 179.202 45.2759C178.774 45.6235 178.188 45.7968 177.445 45.7968C176.902 45.7968 176.424 45.6959 176.01 45.4937C175.596 45.2919 175.262 44.9981 175.009 44.6133C174.985 44.5626 174.973 44.531 174.973 44.5186C174.973 44.4741 175.003 44.4301 175.064 44.3857L175.39 44.1493C175.444 44.111 175.486 44.0924 175.516 44.0924C175.553 44.0924 175.586 44.111 175.616 44.1493C175.876 44.4964 176.133 44.7426 176.386 44.8875C176.639 45.0328 176.98 45.1057 177.409 45.1057C177.916 45.1057 178.31 45.011 178.591 44.8213C178.871 44.6319 179.012 44.3386 179.012 43.9408C179.012 43.6946 178.938 43.4848 178.79 43.311C178.642 43.1373 178.375 42.9746 177.989 42.823L176.612 42.331C176.135 42.1604 175.784 41.9155 175.557 41.5968C175.331 41.2781 175.217 40.9261 175.217 40.5408C175.217 40.1497 175.313 39.8053 175.503 39.5088C175.693 39.2119 175.962 38.983 176.309 38.8221C176.656 38.6613 177.056 38.5808 177.509 38.5808C177.949 38.5808 178.349 38.6626 178.708 38.827C179.068 38.991 179.374 39.2213 179.628 39.5181C179.658 39.5497 179.673 39.5813 179.673 39.6128C179.673 39.6444 179.658 39.6728 179.628 39.6981L179.211 40.039C179.193 40.0581 179.175 40.0675 179.156 40.0675C179.138 40.0675 179.102 40.039 179.048 39.9821C178.662 39.5088 178.149 39.2719 177.509 39.2719ZM168.545 38.8457C168.904 39.0226 169.202 39.2595 169.437 39.5559C169.672 39.8528 169.815 40.1746 169.863 40.5221L169.872 40.5884C169.872 40.6137 169.865 40.6324 169.849 40.6453C169.834 40.6577 169.817 40.6639 169.799 40.6639L169.12 40.7208H169.102C169.084 40.7208 169.069 40.7128 169.057 40.6973C169.045 40.6813 169.036 40.6577 169.03 40.6261C168.939 40.2159 168.752 39.8875 168.468 39.6413C168.184 39.395 167.84 39.2719 167.436 39.2719C166.802 39.2719 166.318 39.5168 165.982 40.0057C165.647 40.495 165.48 41.2257 165.48 42.1981C165.48 43.1515 165.647 43.8697 165.982 44.3528C166.318 44.8355 166.817 45.0773 167.481 45.0773C167.91 45.0773 168.268 44.9684 168.554 44.7506C168.841 44.5328 169.072 44.1901 169.247 43.723C169.259 43.6786 169.295 43.6661 169.356 43.6848L169.89 43.8177C169.932 43.8301 169.947 43.8746 169.935 43.9501C169.845 44.2657 169.688 44.5639 169.464 44.8453C169.241 45.1261 168.957 45.355 168.613 45.5315C168.269 45.7084 167.88 45.7968 167.445 45.7968C166.848 45.7968 166.334 45.6515 165.906 45.3613C165.477 45.071 165.148 44.6541 164.918 44.111C164.689 43.5684 164.574 42.9244 164.574 42.1795C164.574 41.4341 164.688 40.7919 164.914 40.2519C165.14 39.7124 165.466 39.2986 165.892 39.0115C166.318 38.7244 166.823 38.5808 167.409 38.5808C167.807 38.5808 168.186 38.6688 168.545 38.8457ZM158.848 38.6755C158.921 38.6755 158.957 38.7164 158.957 38.7986V45.5413C158.957 45.6044 158.945 45.647 158.921 45.6693C158.896 45.691 158.855 45.7021 158.794 45.7021H158.224C158.169 45.7021 158.133 45.6928 158.115 45.6737C158.097 45.655 158.088 45.6199 158.088 45.5697V38.8079C158.088 38.7195 158.124 38.6755 158.196 38.6755H158.848ZM152.081 38.6755C152.117 38.6755 152.143 38.683 152.158 38.699C152.173 38.7146 152.181 38.7448 152.181 38.7888V45.5884C152.181 45.6644 152.141 45.7021 152.063 45.7021H151.619C151.571 45.7021 151.533 45.6977 151.506 45.6879C151.479 45.6786 151.453 45.6581 151.429 45.6266L147.933 40.3137C147.91 40.2693 147.887 40.2506 147.865 40.2568C147.844 40.263 147.834 40.2853 147.834 40.323V45.579C147.834 45.6613 147.792 45.7021 147.707 45.7021H147.2C147.122 45.7021 147.082 45.6613 147.082 45.579V38.8079C147.082 38.7573 147.09 38.7226 147.105 38.7039C147.12 38.6848 147.151 38.6755 147.2 38.6755H147.716C147.765 38.6755 147.801 38.6817 147.825 38.6941C147.849 38.707 147.876 38.7319 147.907 38.7701L151.302 43.9693C151.332 44.007 151.36 44.0261 151.384 44.0261C151.42 44.0261 151.438 43.9977 151.438 43.9408V38.7888C151.438 38.7133 151.474 38.6755 151.547 38.6755H152.081ZM140.075 44.3955C140.398 43.9217 140.559 43.1959 140.559 42.2173C140.559 41.2195 140.395 40.4795 140.065 39.9964C139.737 39.5133 139.249 39.2719 138.603 39.2719C137.945 39.2719 137.452 39.515 137.123 40.0013C136.794 40.4875 136.629 41.2257 136.629 42.2173C136.629 43.1959 136.794 43.9217 137.123 44.3955C137.452 44.8688 137.948 45.1057 138.613 45.1057C139.264 45.1057 139.752 44.8688 140.075 44.3955ZM137.06 45.3804C136.628 45.1026 136.297 44.695 136.068 44.1586C135.839 43.6217 135.724 42.9746 135.724 42.2173C135.724 41.4533 135.84 40.7981 136.072 40.2519C136.305 39.7061 136.637 39.291 137.069 39.0066C137.5 38.7226 138.012 38.5808 138.603 38.5808C139.189 38.5808 139.698 38.7226 140.129 39.0066C140.561 39.291 140.891 39.7044 141.121 40.2475C141.35 40.7906 141.465 41.4439 141.465 42.2075C141.465 42.9653 141.35 43.6124 141.121 44.1493C140.891 44.6857 140.561 45.0946 140.129 45.3755C139.698 45.6564 139.186 45.7968 138.594 45.7968C138.003 45.7968 137.491 45.6581 137.06 45.3804ZM129.146 41.5355C129.412 41.3333 129.545 41.0146 129.545 40.5786C129.545 40.1684 129.427 39.859 129.192 39.6506C128.957 39.4426 128.609 39.3381 128.15 39.3381H126.556C126.472 39.3381 126.43 39.3728 126.43 39.4426V41.7155C126.43 41.7973 126.457 41.8381 126.511 41.8381H127.942C128.48 41.8381 128.881 41.7373 129.146 41.5355ZM130.369 45.5884C130.369 45.6644 130.333 45.7021 130.26 45.7021H129.599C129.533 45.7021 129.485 45.6644 129.454 45.5884L128.286 42.6053C128.268 42.5675 128.244 42.539 128.214 42.5204C128.184 42.5013 128.136 42.4919 128.069 42.4919H126.538C126.466 42.4919 126.43 42.5266 126.43 42.5959V45.5506C126.43 45.6075 126.419 45.647 126.398 45.6693C126.377 45.691 126.337 45.7021 126.276 45.7021H125.687C125.639 45.7021 125.606 45.6928 125.588 45.6737C125.57 45.655 125.561 45.6235 125.561 45.579V38.8079C125.561 38.7573 125.568 38.7226 125.583 38.7039C125.598 38.6848 125.627 38.6755 125.669 38.6755H128.195C128.914 38.6755 129.469 38.8301 129.862 39.1395C130.254 39.4488 130.451 39.8999 130.451 40.4937C130.451 40.9924 130.322 41.395 130.066 41.7013C129.809 42.0075 129.497 42.2173 129.128 42.331C129.104 42.3373 129.089 42.3497 129.083 42.3688C129.077 42.3875 129.08 42.4066 129.092 42.4253L130.36 45.5221C130.366 45.535 130.369 45.5568 130.369 45.5884ZM115.071 38.7795C115.071 38.7101 115.108 38.6755 115.18 38.6755H120.052C120.125 38.6755 120.161 38.7101 120.161 38.7795V39.2719C120.161 39.3097 120.151 39.335 120.133 39.3475C120.115 39.3604 120.088 39.3666 120.052 39.3666H118.214C118.177 39.3666 118.152 39.3728 118.137 39.3857C118.121 39.3981 118.114 39.4235 118.114 39.4613V45.579C118.114 45.6613 118.078 45.7021 118.005 45.7021H117.353C117.281 45.7021 117.245 45.6613 117.245 45.579V39.471C117.245 39.4266 117.238 39.3981 117.227 39.3857C117.215 39.3728 117.19 39.3666 117.154 39.3666H115.18C115.143 39.3666 115.117 39.3604 115.098 39.3475C115.081 39.335 115.071 39.3097 115.071 39.2719V38.7795ZM108.698 38.8457C109.057 39.0226 109.354 39.2595 109.59 39.5559C109.825 39.8528 109.967 40.1746 110.016 40.5221L110.024 40.5884C110.024 40.6137 110.017 40.6324 110.002 40.6453C109.987 40.6577 109.97 40.6639 109.952 40.6639L109.273 40.7208H109.255C109.237 40.7208 109.222 40.7128 109.209 40.6973C109.198 40.6813 109.188 40.6577 109.182 40.6261C109.092 40.2159 108.905 39.8875 108.621 39.6413C108.337 39.395 107.993 39.2719 107.589 39.2719C106.955 39.2719 106.47 39.5168 106.135 40.0057C105.8 40.495 105.633 41.2257 105.633 42.1981C105.633 43.1515 105.8 43.8697 106.135 44.3528C106.47 44.8355 106.97 45.0773 107.634 45.0773C108.062 45.0773 108.42 44.9684 108.707 44.7506C108.994 44.5328 109.224 44.1901 109.4 43.723C109.412 43.6786 109.448 43.6661 109.508 43.6848L110.042 43.8177C110.085 43.8301 110.1 43.8746 110.088 43.9501C109.997 44.2657 109.84 44.5639 109.617 44.8453C109.394 45.1261 109.11 45.355 108.766 45.5315C108.422 45.7084 108.032 45.7968 107.598 45.7968C107 45.7968 106.487 45.6515 106.058 45.3613C105.63 45.071 105.301 44.6541 105.071 44.111C104.842 43.5684 104.727 42.9244 104.727 42.1795C104.727 41.4341 104.84 40.7919 105.067 40.2519C105.293 39.7124 105.619 39.2986 106.045 39.0115C106.47 38.7244 106.976 38.5808 107.562 38.5808C107.96 38.5808 108.338 38.6688 108.698 38.8457ZM95.619 38.7039C95.6339 38.6848 95.6623 38.6755 95.7047 38.6755H99.7707C99.831 38.6755 99.8616 38.7101 99.8616 38.7795V39.2626C99.8616 39.3381 99.8223 39.3759 99.7436 39.3759H96.5834C96.5349 39.3759 96.503 39.3839 96.4882 39.3999C96.4733 39.4155 96.4654 39.4457 96.4654 39.4897V41.7057C96.4654 41.775 96.4986 41.8097 96.5651 41.8097H98.9103C98.9767 41.8097 99.0099 41.8448 99.0099 41.9141V42.4159C99.0099 42.4728 98.9767 42.5013 98.9103 42.5013H96.5651C96.4986 42.5013 96.4654 42.5359 96.4654 42.6053V44.9066C96.4654 44.9444 96.4716 44.9697 96.4834 44.9826C96.4956 44.995 96.5196 45.0013 96.5559 45.0013H99.8795C99.9158 45.0013 99.9411 45.0079 99.956 45.0204C99.9717 45.0328 99.9787 45.0581 99.9787 45.0959V45.5981C99.9787 45.6675 99.9459 45.7021 99.8795 45.7021H95.723C95.6749 45.7021 95.6413 45.6928 95.6229 45.6737C95.605 45.655 95.5963 45.6199 95.5963 45.5697V38.8079C95.5963 38.7573 95.6033 38.7226 95.619 38.7039ZM86.103 38.6755H86.755C86.8271 38.6755 86.8633 38.7164 86.8633 38.7986V44.9066C86.8633 44.9444 86.8695 44.9697 86.8817 44.9826C86.8939 44.995 86.918 45.0013 86.9542 45.0013H90.0874C90.1236 45.0013 90.1507 45.0079 90.1691 45.0204C90.187 45.0328 90.1957 45.0581 90.1957 45.0959V45.5981C90.1957 45.6675 90.1595 45.7021 90.0874 45.7021H86.1209C86.0729 45.7021 86.0397 45.6928 86.0217 45.6737C86.0034 45.655 85.9942 45.6199 85.9942 45.5697V38.8079C85.9942 38.7195 86.0305 38.6755 86.103 38.6755ZM76.1798 38.7039C76.1946 38.6848 76.2235 38.6755 76.2658 38.6755H80.3315C80.3922 38.6755 80.4223 38.7101 80.4223 38.7795V39.2626C80.4223 39.3381 80.383 39.3759 80.3048 39.3759H77.1442C77.0961 39.3759 77.0642 39.3839 77.0493 39.3999C77.034 39.4155 77.0266 39.4457 77.0266 39.4897V41.7057C77.0266 41.775 77.0598 41.8097 77.1258 41.8097H79.4711C79.5379 41.8097 79.5711 41.8448 79.5711 41.9141V42.4159C79.5711 42.4728 79.5379 42.5013 79.4711 42.5013H77.1258C77.0598 42.5013 77.0266 42.5359 77.0266 42.6053V44.9066C77.0266 44.9444 77.0323 44.9697 77.0445 44.9826C77.0568 44.995 77.0808 45.0013 77.1171 45.0013H80.4403C80.4765 45.0013 80.5023 45.0079 80.5172 45.0204C80.5325 45.0328 80.5399 45.0581 80.5399 45.0959V45.5981C80.5399 45.6675 80.5071 45.7021 80.4403 45.7021H76.2842C76.2357 45.7021 76.2025 45.6928 76.1841 45.6737C76.1662 45.655 76.1575 45.6199 76.1575 45.5697V38.8079C76.1575 38.7573 76.1645 38.7226 76.1798 38.7039Z" fill="white"/>
        <path fill-rule="evenodd" clip-rule="evenodd" d="M168.179 31.4189C167.848 31.0742 167.682 30.5724 167.682 29.914V17.358C167.682 16.715 167.866 16.2017 168.235 15.8177C168.605 15.4336 169.105 15.2415 169.738 15.2415C170.386 15.2415 170.897 15.4336 171.274 15.8177C171.65 16.2017 171.839 16.715 171.839 17.358V28.4325H177.035C178.345 28.4325 179 29.0206 179 30.1963C179 30.7919 178.838 31.2308 178.514 31.5132C178.19 31.795 177.697 31.9362 177.035 31.9362H169.602C168.985 31.9362 168.51 31.7636 168.179 31.4189ZM152.705 25.2584H157.223L154.964 20.0148L152.705 25.2584ZM163.232 30.1494C163.232 30.6667 163.032 31.1056 162.633 31.4658C162.234 31.8264 161.778 32.0065 161.267 32.0065C160.92 32.0065 160.604 31.9127 160.318 31.7247C160.031 31.5366 159.806 31.2543 159.64 30.8782L158.623 28.5033H151.304L150.265 30.8782C150.099 31.2543 149.87 31.5366 149.576 31.7247C149.283 31.9127 148.962 32.0065 148.616 32.0065C148.104 32.0065 147.641 31.8264 147.226 31.4658C146.812 31.1056 146.605 30.6667 146.605 30.1494C146.605 29.8671 146.673 29.5772 146.808 29.2794L152.773 16.5349C152.968 16.1115 153.258 15.7862 153.642 15.5588C154.026 15.3318 154.452 15.2181 154.918 15.2181C155.37 15.2181 155.792 15.3318 156.184 15.5588C156.575 15.7862 156.869 16.1115 157.065 16.5349L163.028 29.2794C163.164 29.5772 163.232 29.8671 163.232 30.1494ZM138.507 28.2564C138.861 27.982 139.038 27.5315 139.038 26.9045C139.038 26.2775 138.861 25.8266 138.507 25.5522C138.153 25.2779 137.561 25.1407 136.733 25.1407H133.367V28.6679H136.733C137.561 28.6679 138.153 28.5307 138.507 28.2564ZM133.367 21.8724H136.327C137.11 21.8724 137.682 21.7472 138.044 21.4963C138.405 21.2454 138.586 20.8458 138.586 20.2971C138.586 19.717 138.405 19.2939 138.044 19.0271C137.682 18.7607 137.11 18.6275 136.327 18.6275H133.367V21.8724ZM142.155 24.8234C142.652 25.5208 142.9 26.3793 142.9 27.3979C142.9 28.3072 142.671 29.1029 142.212 29.7847C141.752 30.4666 141.097 30.9954 140.246 31.372C139.395 31.7481 138.397 31.9362 137.253 31.9362H131.244C130.626 31.9362 130.152 31.7636 129.82 31.4189C129.489 31.0742 129.323 30.5804 129.323 29.9374V17.358C129.323 16.715 129.489 16.2212 129.82 15.8765C130.152 15.5314 130.626 15.3592 131.244 15.3592H137.027C138.699 15.3592 140.028 15.7469 141.014 16.523C142 17.2991 142.494 18.3452 142.494 19.6621C142.494 20.5086 142.275 21.2573 141.839 21.9078C141.402 22.5583 140.792 23.0326 140.009 23.33C140.943 23.6282 141.658 24.1256 142.155 24.8234ZM119.023 27.5041C119.7 26.6182 120.039 25.3288 120.039 23.6358C120.039 21.9427 119.697 20.6577 119.011 19.7798C118.326 18.9019 117.389 18.4629 116.199 18.4629C114.994 18.4629 114.052 18.8979 113.375 19.7679C112.697 20.6378 112.358 21.9273 112.358 23.6358C112.358 25.3447 112.697 26.6377 113.375 27.5156C114.052 28.3935 114.994 28.8325 116.199 28.8325C117.403 28.8325 118.345 28.3895 119.023 27.5041ZM111.963 31.1016C110.766 30.4038 109.843 29.4161 109.196 28.1386C108.548 26.8611 108.224 25.3602 108.224 23.6358C108.224 21.9118 108.548 20.4108 109.196 19.1329C109.843 17.8554 110.766 16.8717 111.963 16.1823C113.16 15.4924 114.572 15.1477 116.199 15.1477C117.825 15.1477 119.237 15.4924 120.434 16.1823C121.632 16.8717 122.55 17.8554 123.19 19.1329C123.83 20.4108 124.15 21.9118 124.15 23.6358C124.15 25.3602 123.827 26.8611 123.179 28.1386C122.531 29.4161 121.609 30.4038 120.412 31.1016C119.214 31.799 117.81 32.1477 116.199 32.1477C114.572 32.1477 113.16 31.799 111.963 31.1016ZM94.4216 31.4189C94.0903 31.0742 93.9246 30.5724 93.9246 29.914V17.358C93.9246 16.715 94.1091 16.2017 94.4776 15.8177C94.8469 15.4336 95.3479 15.2415 95.9804 15.2415C96.6278 15.2415 97.1396 15.4336 97.5164 15.8177C97.8928 16.2017 98.0812 16.715 98.0812 17.358V28.4325H103.277C104.587 28.4325 105.242 29.0206 105.242 30.1963C105.242 30.7919 105.08 31.2308 104.757 31.5132C104.433 31.795 103.94 31.9362 103.277 31.9362H95.8444C95.2272 31.9362 94.7525 31.7636 94.4216 31.4189ZM88.0623 23.0127C88.3561 23.303 88.5029 23.6906 88.5029 24.1769V28.2683C88.5029 29.052 88.4465 29.6516 88.3333 30.0671C88.2206 30.4821 88.0168 30.8074 87.7231 31.0428C87.4298 31.2777 86.9896 31.4817 86.4021 31.6539C85.8146 31.811 85.1633 31.9322 84.4477 32.0185C83.7322 32.1048 83.066 32.1477 82.4488 32.1477C80.7169 32.1477 79.2145 31.807 77.9416 31.1251C76.6691 30.4432 75.6943 29.4635 75.0163 28.186C74.3388 26.9081 74 25.3916 74 23.6358C74 21.9118 74.3388 20.4108 75.0163 19.1329C75.6943 17.8554 76.6582 16.8717 77.9079 16.1823C79.1581 15.4924 80.6185 15.1477 82.2905 15.1477C83.3449 15.1477 84.2899 15.2769 85.1257 15.5353C85.9615 15.7942 86.7404 16.1898 87.4639 16.723C87.72 16.9111 87.9041 17.1146 88.0168 17.3341C88.1301 17.5536 88.1865 17.8359 88.1865 18.1806C88.1865 18.6669 88.0584 19.0784 87.8027 19.4152C87.5465 19.7524 87.2379 19.921 86.8764 19.921C86.6351 19.921 86.4279 19.8856 86.2552 19.8148C86.0817 19.7444 85.8601 19.6232 85.5891 19.4506C85.0313 19.1369 84.508 18.9098 84.0189 18.7687C83.5293 18.6275 82.9982 18.5572 82.426 18.5572C80.9953 18.5572 79.9296 18.9722 79.2298 19.8033C78.5291 20.6338 78.1789 21.9118 78.1789 23.6358C78.1789 25.4075 78.5439 26.72 79.2744 27.5745C80.0052 28.4289 81.1234 28.8559 82.6293 28.8559C83.3523 28.8559 84.0674 28.7776 84.7751 28.621V25.5407H83.149C82.652 25.5407 82.2678 25.4111 81.9968 25.1527C81.7257 24.8938 81.5902 24.5296 81.5902 24.0592C81.5902 23.5889 81.7257 23.2242 81.9968 22.9658C82.2678 22.7074 82.652 22.5777 83.149 22.5777H86.8764C87.3734 22.5777 87.7686 22.7229 88.0623 23.0127Z" fill="white"/>
    </g>
    <defs>
        <clipPath id="clip0_6_8">
            <rect width="180" height="61" fill="white"/>
        </clipPath>
    </defs>
</svg>
